<?xml version="1.0" encoding="utf-8"?>
<!-- Generator: Adobe Illustrator 19.2.1, SVG Export Plug-In . SVG Version: 6.00 Build 0)  -->
<svg version="1.1" id="Layer_1" xmlns="http://www.w3.org/2000/svg" xmlns:xlink="http://www.w3.org/1999/xlink" x="0px" y="0px"
	 width="50px" height="28.3px" viewBox="0 0 50 28.3" style="enable-background:new 0 0 50 28.3;" xml:space="preserve">
<g id="logo_x5F_collapsed">
	<path d="M25,28.3c-7,0-12.4-5.4-12.4-12.2V0h24.9v16.1C37.5,22.9,32,28.3,25,28.3z M15.5,2.9v13.2c0,5.2,4.2,9.3,9.6,9.3
		s9.6-4.1,9.6-9.3V2.9H15.5z M28.7,7.8l-0.5,6.7l-3.1-2.2l-3.2,1.9l-0.5-6.4h-2.9l0.8,11.3l5.6-3.4l5.8,4.1l0.8-12H28.7z M9.7,22.5
		H7.8c-0.9,0-1.7-0.8-1.7-1.7v-2.1c0-1.6-0.7-3.2-1.8-4.4l-0.2-0.2l0.2-0.2c1.2-1.1,1.8-2.7,1.8-4.4V7.5c0-0.9,0.8-1.7,1.7-1.7h1.9
		V2.9H7.8C5.3,2.9,3.2,5,3.2,7.5v2.1c0,0.9-0.4,1.7-1,2.3L0,14.1l2.3,2.3c0.6,0.6,1,1.5,1,2.3v2.1c0,2.5,2.1,4.6,4.6,4.6h1.9V22.5z
		 M46.8,20.8v-2.1c0-0.9,0.3-1.7,1-2.3l2.3-2.3l-2.3-2.3c-0.6-0.6-1-1.5-1-2.3V7.5c0-2.5-2.1-4.6-4.6-4.6h-1.9v2.9h1.9
		c0.9,0,1.7,0.8,1.7,1.7v2.1c0,1.6,0.7,3.2,1.8,4.4l0.2,0.2l-0.2,0.2c-1.1,1.1-1.8,2.7-1.8,4.4v2.1c0,0.9-0.8,1.7-1.7,1.7h-1.9v2.9
		h1.9C44.7,25.4,46.8,23.3,46.8,20.8z"/>
</g>
</svg>
