<?xml version="1.0" encoding="utf-8"?>
<!-- Generator: Adobe Illustrator 19.2.1, SVG Export Plug-In . SVG Version: 6.00 Build 0)  -->
<svg version="1.1" id="Layer_1" xmlns="http://www.w3.org/2000/svg" xmlns:xlink="http://www.w3.org/1999/xlink" x="0px" y="0px"
	 width="250px" height="89.1px" viewBox="0 0 250 89.1" style="enable-background:new 0 0 250 89.1;" xml:space="preserve">
<path d="M5.8,48.8c3.4,0,5.4,1.7,5.4,4.6c0,3.1-2,4.9-5.4,4.9H3.4v3.7H0V48.8H5.8z M3.4,55.7h2.2c1.5,0,2.3-0.7,2.3-2.1
	c0-1.4-0.9-2.1-2.3-2.1H3.4V55.7z M29.2,55.4c0,3.9-3.1,6.8-7.2,6.8c-4.1,0-7.2-2.9-7.2-6.8c0-3.9,3.1-6.7,7.2-6.7
	C26.1,48.7,29.2,51.6,29.2,55.4z M18.3,55.5c0,2.2,1.7,4,3.8,4c2.1,0,3.7-1.7,3.7-4s-1.6-3.9-3.7-3.9C20,51.5,18.3,53.2,18.3,55.5z
	 M39,58.4L39,58.4h-2.7v3.7h-3.4V48.8h5.9c3.5,0,5.5,1.7,5.5,4.6c0,2-0.9,3.5-2.4,4.3l2.8,4.4h-3.8L39,58.4z M38.9,55.7
	c1.5,0,2.3-0.7,2.3-2.1c0-1.4-0.9-2.1-2.3-2.1h-2.6v4.2H38.9z M55.5,51.5v10.6h-3.4V51.5h-4v-2.7h11.3v2.7H55.5z M75.4,56.5
	c0,3.5-2.3,5.7-6.1,5.7c-3.7,0-6.1-2.2-6.1-5.7v-7.7h3.4v7.7c0,1.8,1.2,2.9,2.8,2.9c1.6,0,2.7-1.1,2.7-2.9v-7.7h3.4V56.5z
	 M91.7,55.3v5.2c-1.4,1-3.7,1.7-5.5,1.7c-4,0-7.1-2.9-7.1-6.8c0-3.9,3.1-6.8,7.3-6.8c2,0,4.1,0.8,5.4,2L90,53
	c-1-0.9-2.3-1.4-3.5-1.4c-2.2,0-3.9,1.7-3.9,3.9c0,2.3,1.7,4,3.9,4c0.7,0,1.6-0.2,2.4-0.6v-3.4H91.7z M107.8,56.5
	c0,3.5-2.3,5.7-6.1,5.7c-3.7,0-6.1-2.2-6.1-5.7v-7.7H99v7.7c0,1.8,1.2,2.9,2.8,2.9c1.6,0,2.7-1.1,2.7-2.9v-7.7h3.4V56.5z
	 M114.9,51.5v2.6h6.3v2.7h-6.3v2.7h7.2v2.7h-10.6V48.8h10.4v2.7H114.9z M137.2,50.1l-1.3,2.6c-1.4-0.8-3.2-1.4-4.3-1.4
	c-0.9,0-1.5,0.3-1.5,1c0,2.3,7,1,7,5.8c0,2.7-2.4,4.1-5.3,4.1c-2.2,0-4.5-0.8-6.1-2.1l1.3-2.6c1.4,1.2,3.4,2,4.8,2
	c1.1,0,1.7-0.4,1.7-1.2c0-2.4-7-0.9-7-5.7c0-2.4,2.1-4,5.3-4C133.8,48.7,135.8,49.3,137.2,50.1z M144.3,51.5v2.6h6.3v2.7h-6.3v2.7
	h7.2v2.7h-10.6V48.8h10.4v2.7H144.3z M175.5,62.1l-2.5-9.2l-2.5,9.2H167l-4.3-13.3h3.6l2.6,9.8l2.5-9.8h3.3l2.6,9.8l2.6-9.8h3.5
	L179,62.1H175.5z M201.4,55.4c0,3.9-3.1,6.8-7.2,6.8c-4.1,0-7.2-2.9-7.2-6.8c0-3.9,3.1-6.7,7.2-6.7
	C198.4,48.7,201.4,51.6,201.4,55.4z M190.5,55.5c0,2.2,1.7,4,3.8,4c2.1,0,3.7-1.7,3.7-4s-1.6-3.9-3.7-3.9
	C192.2,51.5,190.5,53.2,190.5,55.5z M216.7,62.1l0-8.6l-3.2,7.3h-2.2l-3.2-7.3v8.6h-3V48.8h3.7l3.6,7.9l3.6-7.9h3.7v13.3H216.7z
	 M226.8,51.5v2.6h6.3v2.7h-6.3v2.7h7.2v2.7h-10.6V48.8h10.4v2.7H226.8z M247,62.1l-6.1-8.2v8.2h-3.2V48.8h3l6.1,8.2v-8.2h3.2v13.3
	H247z M77.6,78.8c0,1.2-0.4,1.8-1.3,2.1c1,0.2,1.3,0.8,1.3,2V86c0,0.9,0.5,1.3,1.8,1.3v1.7h-0.8c-2.1,0-3-0.7-3-2.4v-3.9
	c0-0.7-0.2-1-0.8-1h-0.6V80h0.6c0.6,0,0.8-0.3,0.8-1V75c0-1.7,0.8-2.4,3-2.4h0.8v1.7c-1.3,0-1.8,0.4-1.8,1.3V78.8z M83.1,86.7V73.4
	h2.2v13.3H83.1z M98.3,86.7l-7.1-9.5v9.5h-2.2V73.4h2.2l7.1,9.5v-9.5h2.2v13.3H98.3z M118.1,75.5v11.3h-2.2V75.5h-4.2v-2h10.6v2
	H118.1z M128.2,75.5V79h6.5v2h-6.5v3.7h7.5v2H126V73.4h9.5v2H128.2z M151.5,75.4l-1.3,1.6c-1-1-2.4-1.7-3.7-1.7
	c-2.7,0-4.7,2.1-4.7,4.7c0,2.6,2.1,4.7,4.7,4.7c1.3,0,2.7-0.6,3.7-1.6l1.3,1.5c-1.3,1.3-3.3,2.2-5.1,2.2c-3.9,0-6.9-2.9-6.9-6.8
	c0-3.8,3.1-6.7,7-6.7C148.3,73.4,150.2,74.2,151.5,75.4z M164.5,86.7v-5.5h-7v5.5h-2.2V73.4h2.2v5.8h7v-5.8h2.2v13.3H164.5z
	 M175.8,81.8h-0.6c-0.6,0-0.8,0.3-0.8,1v3.9c0,1.8-0.8,2.4-3,2.4h-0.8v-1.7c1.3,0,1.8-0.4,1.8-1.3v-3.1c0-1.2,0.4-1.8,1.3-2.1
	c-1-0.2-1.3-0.8-1.3-2v-3.1c0-0.9-0.5-1.3-1.8-1.3v-1.7h0.8c2.1,0,3,0.7,3,2.4V79c0,0.7,0.2,1,0.8,1h0.6V81.8z M125,38.3
	c-9.4,0-16.8-7.2-16.8-16.5V0h33.7v21.8C141.9,31,134.5,38.3,125,38.3z M112.1,3.9v17.9c0,7.1,5.7,12.6,12.9,12.6
	c7.2,0,12.9-5.5,12.9-12.6V3.9H112.1z M130,10.6l-0.6,9.1l-4.2-3l-4.4,2.6l-0.6-8.7h-3.9l1.1,15.3l7.6-4.6l7.8,5.5l1.1-16.2H130z
	 M104.3,30.5h-2.5c-1.3,0-2.3-1-2.3-2.3v-2.8c0-2.2-0.9-4.4-2.4-5.9l-0.3-0.3l0.3-0.3c1.6-1.6,2.5-3.7,2.5-5.9v-2.8
	c0-1.3,1-2.3,2.3-2.3h2.5V3.9h-2.5c-3.4,0-6.2,2.8-6.2,6.2v2.8c0,1.2-0.5,2.3-1.3,3.1l-3.1,3.1l3.1,3.1c0.8,0.8,1.3,2,1.3,3.1v2.8
	c0,3.4,2.8,6.2,6.2,6.2h2.5V30.5z M154.5,28.2v-2.8c0-1.2,0.5-2.3,1.3-3.1l3.1-3.1l-3.1-3.1c-0.8-0.8-1.3-2-1.3-3.1v-2.8
	c0-3.4-2.8-6.2-6.2-6.2h-2.6v3.9h2.6c1.3,0,2.3,1,2.3,2.3v2.8c0,2.2,0.9,4.4,2.4,5.9l0.3,0.3l-0.3,0.3c-1.6,1.6-2.4,3.7-2.4,5.9v2.8
	c0,1.3-1,2.3-2.3,2.3h-2.6v3.9h2.6C151.7,34.4,154.5,31.6,154.5,28.2z"/>
</svg>
